<svg id="Layer_1" data-name="Layer 1" xmlns="http://www.w3.org/2000/svg" viewBox="0 0 802.22 231.97"><defs><style>.cls-1{fill:#010100;}.cls-2{fill:#3ab2aa;}.cls-3{fill:#020100;}.cls-4{fill:#020200;}</style></defs><title>KPIN</title><path class="cls-1" d="M975,418.5c0-26.21,0-51.7-.07-77.19,0-2.7.7-3.26,3.28-3.23,12.8.14,25.6.11,38.39,0,2.13,0,2.87.4,2.86,2.75q-.12,76.78,0,153.56c0,2.29-.65,2.81-2.84,2.79q-15.14-.17-30.29,0a4.28,4.28,0,0,1-3.72-1.88Q956.3,462.65,930,430.06c-2.81-3.5-5.65-7-8.6-10.6-.73,1-.4,2.05-.4,3q0,35.38,0,70.78c0,3.88,0,3.88-4,3.88-12.2,0-24.4-.08-36.59.06-2.56,0-3.08-.76-3.08-3.18q.12-76.48,0-153c0-2.34.58-3,3-3q14.09.21,28.19,0a5.53,5.53,0,0,1,4.93,2.51q30.06,38.22,60.24,76.36C973.9,417.31,974.22,417.65,975,418.5Z" transform="translate(-217.2 -265.25)"/><path class="cls-1" d="M362.28,497.15c-16.71,0-32.69,0-48.67,0-1.58,0-2-1-2.65-2l-35.43-52.59c-2.72-4-2.36-3.59-6.2-.57-7.27,5.73-9.49,12.78-8.8,21.87.77,10.13.13,20.38.22,30.58,0,2.06-.52,2.7-2.65,2.68q-19.2-.15-38.39,0c-2,0-2.51-.51-2.51-2.49q.09-77.07,0-154.16c0-2.06.68-2.45,2.55-2.43,12.8.07,25.59.09,38.39,0,2.17,0,2.62.7,2.61,2.72-.07,17.8,0,35.59,0,53.39v4.24c2.66-3.27,4.76-5.81,6.82-8.39q20.1-25.12,40.17-50.29c.7-.88,1.26-1.65,2.61-1.64,15.68,0,31.37,0,47.73,0-2.55,3.23-4.74,6.09-7,8.89q-24.22,29.86-48.53,59.68c-1.57,1.93-1.56,3.27-.13,5.29q20.44,28.78,40.69,57.7C349.35,478.66,355.61,487.63,362.28,497.15Z" transform="translate(-217.2 -265.25)"/><path class="cls-1" d="M679.14,418V377.35a178.69,178.69,0,0,0,9.2,15.93c6.81,10.19,15.5,18.74,24.08,27.38,2.81,2.84,5.69,5.61,8.6,8.36a4.66,4.66,0,0,1,1.51,3.7c0,20.59-.08,41.18,0,61.77,0,2.41-.83,2.73-2.91,2.7-9.7-.1-19.4-.11-29.09,0a4.83,4.83,0,0,1-4.23-2.1q-29.93-37.2-59.9-74.36c-.28-.35-.61-.68-1-1.09-.78,1.24-.47,2.35-.47,3.39,0,23.59-.07,47.18.06,70.77,0,2.83-.83,3.42-3.49,3.39q-18.75-.21-37.49,0c-2.32,0-2.76-.67-2.76-2.85q.11-76.77,0-153.54c0-2.35.72-2.75,2.86-2.72,9.69.11,19.39.08,29.09,0a3.92,3.92,0,0,1,3.52,1.67Q637.36,366,658,392.23l20.52,26.06Z" transform="translate(-217.2 -265.25)"/><path class="cls-1" d="M371.34,417.65c0-25.5,0-51-.07-76.49,0-2.54.68-3.09,3.13-3.08,21.3.11,42.6.07,63.89.06,22.35,0,38.3,10.76,48.44,30,12.94,24.53,5.89,54-16.34,70.67a44.09,44.09,0,0,1-25.23,9.15c-9.09.31-18.19.25-27.29.15-2.41,0-3,.71-3,3,.1,14.3,0,28.6.1,42.9,0,2.41-.48,3.23-3.07,3.2q-18.75-.23-37.5,0c-2.44,0-3.16-.53-3.15-3.07C371.38,468.64,371.34,443.14,371.34,417.65Zm43.59-24.51c0,4.89.07,9.78,0,14.66,0,1.79.44,2.43,2.33,2.39,6.68-.11,13.37,0,20-.05a10.54,10.54,0,0,0,10.12-7c2-5.09,1.85-10.41,1.08-15.64-1.1-7.52-6-11.42-13.61-11.42-5.69,0-11.38.13-17.06-.06-2.48-.09-3,.8-2.92,3.05C415,383.76,414.93,388.45,414.93,393.14Z" transform="translate(-217.2 -265.25)"/><path class="cls-2" d="M797.31,310.79c-3.84,6.88-7.41,13.32-11,19.74-1.23,2.17-2.58,4.27-3.83,6.43-2.15,3.72-1.85,7.35,1,10.54,8.58,9.74,16.87,19.72,25,29.83,1.15,1.42,1.9,1.56,3.14,0,23.54-30.52,11.9-75.92-23.45-91.31-23.83-10.37-52.13-2.45-67.89,19a60.31,60.31,0,0,0,.58,72.82c13.26,17.53,27.69,34.1,41.72,51,3.32,4,3.45,4,6.89,0,6.36-7.43,12.7-14.89,18.92-22.45,1.62-2,2.85-1.78,4.26-.08,1.65,2,3.32,4,4.82,6.11,2.19,3.11,2.23,5.12,0,8.22-5.17,7.25-11.35,13.67-16.93,20.59-4.63,5.74-9.49,11.31-14.25,16.95-.62.73-1.3,2-2,.13-2.66-6.68-8-11.43-12.37-16.79-13.26-16.11-27-31.87-40-48.14-12.83-16-20.2-34.17-19.44-55,1.16-32.27,19.25-59.34,51.08-69.09,26.93-8.25,52-4.05,72.82,16C834.69,303,842,324.94,839.1,350.32c-2,17-9.73,31.49-20.11,44.73-2.47,3.15-5.2,6.07-7.69,9.19-1.37,1.71-2.13,1.92-3.72,0-13.05-15.77-26.28-31.38-39.37-47.12-2.3-2.78-5.45-3.93-8.48-5.42-1-.5-1.46,0-1.75.88-1.23,3.67-2.92,7.18-2.68,11.25a42.88,42.88,0,0,1-.37,10.18c-.66,3.71-2,5.08-5.84,4.95-3-.11-5.94-.74-8.92-1-1.45-.14-1.47-1-1.46-2.09,0-2.8,0-5.6,0-8.4,0-17.8.06-35.59-.06-53.39,0-2.71.78-3.46,3.38-3.31a96.6,96.6,0,0,0,10.49,0c2.18-.1,3,.48,2.9,2.82-.2,4-.15,8,0,12,.11,3.12.41,6.9,3.42,8.1s5.88-1.13,8.36-3.06a10.48,10.48,0,0,0,2.73-3.88,81.61,81.61,0,0,1,7.23-12.39,10.14,10.14,0,0,1,8.48-4.3A68,68,0,0,1,797.31,310.79Z" transform="translate(-217.2 -265.25)"/><path class="cls-3" d="M510.54,417.54c0-25.48,0-51,0-76.45,0-2.24.41-3,2.88-3,12.59.14,25.18.11,37.77,0,2.21,0,3.07.37,3.07,2.88q-.12,76.61,0,153.21c0,2.29-.5,3.05-2.94,3q-18.74-.19-37.48,0c-2.54,0-3.33-.47-3.32-3.21C510.59,468.52,510.54,443,510.54,417.54Z" transform="translate(-217.2 -265.25)"/><path class="cls-1" d="M850.18,380.11V480.38c0,4.8-.07,9.6,0,14.4,0,1.74-.3,2.43-2.26,2.42q-19.65-.13-39.3,0c-1.71,0-2.2-.51-2.19-2.2q.07-30.3,0-60.59c0-1.79.95-2.74,2-3.76q14.17-13.77,27.29-28.56a84.54,84.54,0,0,0,12.65-19.18A6.59,6.59,0,0,1,850.18,380.11Z" transform="translate(-217.2 -265.25)"/><path class="cls-4" d="M747.82,456.81c4,5.31,9.54,8.54,14.32,12.57,2.1,1.77,5.31,1.35,7.7-.82,3.24-2.95,6.29-6.11,9.42-9.18.68-.66,1.4-1.29,2.51-2.31v23.55c0,4.8-.07,9.6,0,14.4,0,1.72-.52,2.18-2.2,2.17-10-.07-20-.05-30,0-1.27,0-2.31.09-2.3-1.77.08-12.59.06-25.18.09-37.78C747.41,457.44,747.58,457.27,747.82,456.81Z" transform="translate(-217.2 -265.25)"/></svg>